<svg width="514" height="268" viewBox="0 0 514 268" fill="none" xmlns="http://www.w3.org/2000/svg">
<path d="M427.84 205.302L489.975 215.414C492.435 215.817 494.67 217.074 496.281 218.959C497.892 220.845 498.775 223.236 498.77 225.706L498.723 282.974C498.72 285.424 497.844 287.795 496.25 289.669C494.656 291.543 492.445 292.8 490.008 293.219L427.76 303.996C424.159 316.386 419.216 328.21 412.929 339.469L449.683 390.092C451.148 392.102 451.842 394.563 451.639 397.033C451.436 399.504 450.349 401.822 448.575 403.57L407.652 444.036C405.903 445.772 403.593 446.842 401.127 447.056C398.661 447.27 396.197 446.615 394.171 445.207L342.603 409.296C331.173 415.57 319.077 420.573 306.537 424.215L295.523 485.563C295.088 487.976 293.808 490.16 291.907 491.73C290.006 493.3 287.607 494.156 285.132 494.146L227.343 494.099C224.858 494.099 222.453 493.225 220.558 491.632C218.663 490.039 217.402 487.831 216.998 485.403L206.761 424.357C194.176 420.736 182.034 415.745 170.558 409.475L119.319 444.983C117.29 446.387 114.826 447.038 112.36 446.82C109.895 446.602 107.586 445.529 105.841 443.79L64.9506 403.257C63.2141 401.5 62.1519 399.198 61.9478 396.748C61.7437 394.299 62.4105 391.855 63.8329 389.841L100.089 339.725C93.708 328.295 88.6343 316.196 84.9614 303.652L23.6664 292.838C21.2352 292.409 19.0344 291.145 17.4497 289.269C15.8651 287.393 14.9978 285.025 15 282.579L15.0468 225.31C15.0509 220.2 18.763 215.859 23.8589 215.033L85.171 204.958C88.9006 192.398 93.9626 180.393 100.357 168.942L64.603 118.256C63.1933 116.25 62.5413 113.815 62.7615 111.381C62.9816 108.946 64.0598 106.665 65.8071 104.938L106.763 64.5039C108.523 62.7613 110.851 61.6937 113.331 61.491C115.811 61.2883 118.284 61.9637 120.308 63.397L171.07 99.3709C182.534 93.1627 194.588 88.2751 207.232 84.7081L217.343 23.7111C217.751 21.2744 219.02 19.0604 220.923 17.4647C222.826 15.869 225.241 14.9954 227.734 15L285.556 15.0473C290.683 15.0514 295.033 18.6961 295.932 23.6795L306.718 85.013C319.292 88.6218 331.327 93.5824 342.824 99.8946L393.741 63.6843C395.766 62.229 398.249 61.5367 400.743 61.732C403.237 61.9272 405.579 62.9971 407.349 64.7495L448.206 105.283C449.954 107.018 451.028 109.309 451.238 111.751C451.448 114.193 450.782 116.631 449.356 118.635L413.035 169.805C419.261 181.095 424.196 192.917 427.84 205.27L427.84 205.302ZM183.23 254.513C183.214 273.852 190.955 292.406 204.751 306.092C218.547 319.778 237.267 327.476 256.793 327.492C276.319 327.508 295.051 319.841 308.869 306.177C322.687 292.514 330.459 273.973 330.475 254.633C330.491 235.294 322.749 216.741 308.954 203.054C295.158 189.368 276.438 181.67 256.912 181.654C237.386 181.638 218.653 189.306 204.835 202.969C191.017 216.633 183.245 235.174 183.23 254.513Z" stroke="#EAF1F7" stroke-width="30"/>
</svg>
