<svg width="348" height="466" viewBox="0 0 348 466" fill="none" xmlns="http://www.w3.org/2000/svg">
<path d="M329.842 115.787L380.851 95.0052C382.872 94.1848 385.087 94.1335 387.1 94.8606C389.113 95.5876 390.792 97.0456 391.839 98.9742L416.154 143.663C417.194 145.576 417.543 147.829 417.142 150.026C416.74 152.223 415.613 154.224 413.958 155.675L371.745 192.802C374.307 204.127 375.618 215.63 375.679 227.313L424.834 249.838C426.79 250.729 428.357 252.329 429.255 254.35C430.153 256.37 430.322 258.679 429.732 260.861L416.173 311.306C415.597 313.466 414.314 315.366 412.552 316.671C410.789 317.976 408.659 318.602 406.536 318.439L352.501 314.224C346.575 324.391 339.61 333.874 331.731 342.5L349.536 395.431C350.235 397.514 350.201 399.808 349.44 401.91C348.678 404.012 347.238 405.786 345.374 406.92L301.91 433.547C300.042 434.695 297.863 435.122 295.761 434.754C293.659 434.386 291.772 433.246 290.436 431.538L256.784 388.648C245.783 391.631 234.533 393.341 223.24 393.745L199.818 445.081C198.89 447.113 197.314 448.758 195.368 449.725C193.422 450.693 191.23 450.921 189.178 450.37L141.204 437.623C139.152 437.054 137.375 435.749 136.18 433.932C134.985 432.116 134.447 429.902 134.66 427.675L140.606 371.858C130.95 365.887 121.991 358.791 113.897 350.702L63.2194 370.55C61.2091 371.336 59.0173 371.366 57.0284 370.634C55.0394 369.902 53.3803 368.455 52.342 366.546L28.027 321.858C25.8572 317.87 26.8021 312.772 30.2817 309.776L72.09 273.628C69.5533 262.111 68.2541 250.412 68.1926 238.53L19.7626 215.494C17.8496 214.58 16.3246 212.982 15.4547 210.981C14.5849 208.981 14.4257 206.704 15.0051 204.551L28.6017 154.117C29.184 151.946 30.4796 150.039 32.258 148.737C34.0364 147.434 36.1823 146.82 38.3138 147.004L91.7703 151.64C97.7487 141.509 104.732 132.135 112.721 123.519L94.3868 71.278C93.6569 69.1895 93.6694 66.8773 94.4218 64.7544C95.1743 62.6316 96.6178 60.8363 98.4944 59.6893L141.982 33.0472C145.839 30.6847 150.659 31.52 153.453 34.9921L187.64 77.8534C198.627 74.8665 209.784 73.1824 221.111 72.801L243.992 21.065C244.895 18.9955 246.468 17.31 248.426 16.3114C250.384 15.3128 252.599 15.0666 254.675 15.6171L302.624 28.3794C304.676 28.9266 306.457 30.2178 307.654 32.0257C308.85 33.8335 309.386 36.0422 309.166 38.2627L303.618 94.9319C313.099 100.866 321.836 107.809 329.828 115.762L329.842 115.787ZM166.877 267.034C175.088 282.126 188.797 293.025 204.987 297.334C221.178 301.643 238.524 299.01 253.209 290.013C267.895 281.016 278.717 266.393 283.295 249.36C287.874 232.327 285.833 214.28 277.622 199.189C269.41 184.098 255.702 173.199 239.511 168.889C223.321 164.58 205.975 167.213 191.289 176.21C176.604 185.207 165.782 199.831 161.203 216.863C156.625 233.896 158.666 251.943 166.877 267.034Z" stroke="#EAF1F7" stroke-width="30"/>
</svg>
